<?xml version="1.0" encoding="UTF-8" standalone="no"?><!DOCTYPE svg PUBLIC "-//W3C//DTD SVG 1.1//EN" "http://www.w3.org/Graphics/SVG/1.1/DTD/svg11.dtd"><svg width="100%" height="100%" viewBox="0 0 534 534" version="1.1" xmlns="http://www.w3.org/2000/svg" xmlns:xlink="http://www.w3.org/1999/xlink" xml:space="preserve" xmlns:serif="http://www.serif.com/" style="fill-rule:evenodd;clip-rule:evenodd;"><path d="M525,66.667l0,400c0,32.195 -26.138,58.333 -58.333,58.333l-400,0c-32.195,0 -58.333,-26.138 -58.333,-58.333l-0,-400c0,-32.195 26.138,-58.333 58.333,-58.333l400,-0c32.195,0 58.333,26.138 58.333,58.333Z" style="fill:#363d52;stroke:#212532;stroke-width:16.67px;"/><g><path d="M95.529,334.562l0,13.888c114.186,99.317 228.372,99.317 342.558,0l0,-13.888l-342.558,0Z" style="fill:#fff;fill-rule:nonzero;"/><path d="M95.387,333.369l63.967,5.892c3.367,0.281 5.471,2.244 6.312,5.892l1.683,28.196l55.55,4.208l3.367,-25.671c0.561,-3.086 2.665,-5.19 6.312,-6.312l68.175,0c3.647,1.122 5.751,3.226 6.312,6.312l3.367,25.671l55.55,-4.208l1.683,-28.196c0.842,-3.647 2.946,-5.611 6.312,-5.892l63.967,-5.892l0,-103.525c8.417,-10.942 16.272,-22.304 23.567,-34.087c-9.819,-16.553 -21.462,-31.703 -34.929,-45.45c-12.064,5.611 -23.567,12.204 -34.508,19.779c-11.222,-10.381 -23.567,-19.358 -37.033,-26.933c1.964,-14.308 3.086,-28.617 3.367,-42.925c-16.553,-7.856 -33.807,-13.747 -51.762,-17.675c-7.294,12.064 -13.747,24.549 -19.358,37.454c-13.747,-1.964 -27.494,-1.964 -41.242,0c-5.611,-12.906 -12.064,-25.39 -19.358,-37.454c-17.956,3.928 -35.21,9.819 -51.763,17.675c0.281,14.308 1.403,28.617 3.367,42.925c-13.467,7.575 -25.811,16.553 -37.033,26.933c-10.942,-7.575 -22.444,-14.168 -34.508,-19.779c-13.467,13.747 -25.11,28.897 -34.929,45.45c7.294,11.783 15.15,23.146 23.567,34.087l0,103.525Zm0,13.887l0,16.412c0,116.15 342.137,116.15 342.558,0l0,-16.412l-56.392,5.05l-2.104,29.037c-0.561,2.806 -2.525,4.629 -5.892,5.471l-68.175,4.629c-3.367,0 -5.611,-1.543 -6.733,-4.629l-4.208,-27.354l-55.55,0l-4.208,27.354c-1.122,3.086 -3.367,4.629 -6.733,4.629l-68.175,-4.629c-3.367,-0.842 -5.331,-2.665 -5.892,-5.471l-2.104,-29.037l-56.392,-5.05Z" style="fill:#478cbf;fill-rule:nonzero;"/><path d="M254.604,303.842c0,14.308 24.408,14.308 24.408,0l0,-36.192c0,-14.308 -24.408,-14.308 -24.408,0l0,36.192Z" style="fill:#fff;fill-rule:nonzero;"/><circle cx="356.446" cy="272.7" r="37.875" style="fill:#fff;"/><circle cx="177.171" cy="272.7" r="37.875" style="fill:#fff;"/></g><g><circle cx="164.546" cy="272.7" r="25.25" style="fill:#414042;"/><circle cx="364.508" cy="266.667" r="25.25" style="fill:#414042;"/></g></svg>